<svg width="64" height="64" viewBox="0 0 64 64" fill="none" xmlns="http://www.w3.org/2000/svg">
<path d="M54.6665 24H9.33317C7.86041 24 6.6665 25.1939 6.6665 26.6667V53.3333C6.6665 54.8061 7.86041 56 9.33317 56H54.6665C56.1393 56 57.3332 54.8061 57.3332 53.3333V26.6667C57.3332 25.1939 56.1393 24 54.6665 24Z" stroke="#5D9DA7" stroke-width="6" stroke-linecap="round" stroke-linejoin="round"/>
<path d="M10.6665 16H53.3332" stroke="#5D9DA7" stroke-width="6" stroke-linecap="round" stroke-linejoin="round"/>
<path d="M20 8H44" stroke="#5D9DA7" stroke-width="6" stroke-linecap="round" stroke-linejoin="round"/>
<path d="M34.6665 32V40" stroke="#5D9DA7" stroke-width="6" stroke-linecap="round" stroke-linejoin="round"/>
<path d="M24 43.6655C24 41.6411 25.7192 40 27.84 40H34.6667V44.3345C34.6667 46.3589 32.9475 48 30.8267 48H27.84C25.7192 48 24 46.3589 24 44.3345V43.6655Z" stroke="#5D9DA7" stroke-width="6" stroke-linejoin="round"/>
<path d="M41.3332 33.3333L34.6665 32" stroke="#5D9DA7" stroke-width="6" stroke-linecap="round" stroke-linejoin="round"/>
</svg>
